# Blender 4.4.3
# www.blender.org
mtllib trident.mtl
o Cylinder
v 0.000000 -0.833926 -0.160000
v 0.000000 1.636684 -0.160000
v 0.138564 -0.833926 -0.080000
v 0.138564 1.636684 -0.080000
v 0.138564 -0.833926 0.080000
v 0.138564 1.636684 0.080000
v 0.000000 -0.833926 0.160000
v 0.000000 1.636684 0.160000
v -0.138564 -0.833926 0.080000
v -0.138564 1.636684 0.080000
v -0.138564 -0.833926 -0.080000
v -0.138564 1.636684 -0.080000
vn 0.5000 -0.0000 -0.8660
vn 1.0000 -0.0000 -0.0000
vn 0.5000 -0.0000 0.8660
vn -0.5000 -0.0000 0.8660
vn -0.0000 1.0000 -0.0000
vn -1.0000 -0.0000 -0.0000
vn -0.5000 -0.0000 -0.8660
vn -0.0000 -1.0000 -0.0000
vt 1.000000 0.500000
vt 1.000000 1.000000
vt 0.833333 1.000000
vt 0.833333 0.500000
vt 0.666667 1.000000
vt 0.666667 0.500000
vt 0.500000 1.000000
vt 0.500000 0.500000
vt 0.333333 1.000000
vt 0.333333 0.500000
vt 0.457846 0.370000
vt 0.250000 0.490000
vt 0.042154 0.370000
vt 0.042154 0.130000
vt 0.250000 0.010000
vt 0.457846 0.130000
vt 0.166667 1.000000
vt 0.166667 0.500000
vt -0.000000 1.000000
vt -0.000000 0.500000
vt 0.750000 0.490000
vt 0.957846 0.370000
vt 0.957846 0.130000
vt 0.750000 0.010000
vt 0.542154 0.130000
vt 0.542154 0.370000
s 0
f 1/1/1 2/2/1 4/3/1 3/4/1
f 3/4/2 4/3/2 6/5/2 5/6/2
f 5/6/3 6/5/3 8/7/3 7/8/3
f 7/8/4 8/7/4 10/9/4 9/10/4
f 4/11/5 2/12/5 12/13/5 10/14/5 8/15/5 6/16/5
f 9/10/6 10/9/6 12/17/6 11/18/6
f 11/18/7 12/17/7 2/19/7 1/20/7
f 1/21/8 3/22/8 5/23/8 7/24/8 9/25/8 11/26/8
o Cylinder.001
v 0.000000 1.744483 -0.085978
v 0.000000 2.151459 -0.085978
v 0.074459 1.744483 -0.042989
v 0.074459 2.151459 -0.042989
v 0.074459 1.744483 0.042989
v 0.074459 2.151459 0.042989
v 0.000000 1.744483 0.085978
v 0.000000 2.151459 0.085978
v -0.074459 1.744483 0.042989
v -0.074459 2.151459 0.042989
v -0.074459 1.744483 -0.042989
v -0.074459 2.151459 -0.042989
vn 0.5000 -0.0000 -0.8660
vn 1.0000 -0.0000 -0.0000
vn 0.5000 -0.0000 0.8660
vn -0.5000 -0.0000 0.8660
vn -0.0000 1.0000 -0.0000
vn -1.0000 -0.0000 -0.0000
vn -0.5000 -0.0000 -0.8660
vn -0.0000 -1.0000 -0.0000
vt 1.000000 0.500000
vt 1.000000 1.000000
vt 0.833333 1.000000
vt 0.833333 0.500000
vt 0.666667 1.000000
vt 0.666667 0.500000
vt 0.500000 1.000000
vt 0.500000 0.500000
vt 0.333333 1.000000
vt 0.333333 0.500000
vt 0.457846 0.370000
vt 0.250000 0.490000
vt 0.042154 0.370000
vt 0.042154 0.130000
vt 0.250000 0.010000
vt 0.457846 0.130000
vt 0.166667 1.000000
vt 0.166667 0.500000
vt -0.000000 1.000000
vt -0.000000 0.500000
vt 0.750000 0.490000
vt 0.957846 0.370000
vt 0.957846 0.130000
vt 0.750000 0.010000
vt 0.542154 0.130000
vt 0.542154 0.370000
s 0
f 13/27/9 14/28/9 16/29/9 15/30/9
f 15/30/10 16/29/10 18/31/10 17/32/10
f 17/32/11 18/31/11 20/33/11 19/34/11
f 19/34/12 20/33/12 22/35/12 21/36/12
f 16/37/13 14/38/13 24/39/13 22/40/13 20/41/13 18/42/13
f 21/36/14 22/35/14 24/43/14 23/44/14
f 23/44/15 24/43/15 14/45/15 13/46/15
f 13/47/16 15/48/16 17/49/16 19/50/16 21/51/16 23/52/16
o Cylinder.002
v 0.567179 1.627040 -0.187032
v -0.567179 1.627040 -0.187032
v 0.567179 1.748283 -0.093516
v -0.567179 1.748283 -0.093516
v 0.567179 1.748283 0.093516
v -0.567179 1.748283 0.093516
v 0.567179 1.627040 0.187032
v -0.567179 1.627040 0.187032
v 0.567179 1.505796 0.093516
v -0.567179 1.505796 0.093516
v 0.567179 1.505796 -0.093516
v -0.567179 1.505796 -0.093516
vn -0.0000 0.6107 -0.7918
vn -0.0000 1.0000 -0.0000
vn -0.0000 0.6107 0.7918
vn -0.0000 -0.6107 0.7918
vn -1.0000 -0.0000 -0.0000
vn -0.0000 -1.0000 -0.0000
vn -0.0000 -0.6107 -0.7918
vn 1.0000 -0.0000 -0.0000
vt 1.000000 0.500000
vt 1.000000 1.000000
vt 0.833333 1.000000
vt 0.833333 0.500000
vt 0.666667 1.000000
vt 0.666667 0.500000
vt 0.500000 1.000000
vt 0.500000 0.500000
vt 0.333333 1.000000
vt 0.333333 0.500000
vt 0.457846 0.370000
vt 0.250000 0.490000
vt 0.042154 0.370000
vt 0.042154 0.130000
vt 0.250000 0.010000
vt 0.457846 0.130000
vt 0.166667 1.000000
vt 0.166667 0.500000
vt -0.000000 1.000000
vt -0.000000 0.500000
vt 0.750000 0.490000
vt 0.957846 0.370000
vt 0.957846 0.130000
vt 0.750000 0.010000
vt 0.542154 0.130000
vt 0.542154 0.370000
s 0
f 25/53/17 26/54/17 28/55/17 27/56/17
f 27/56/18 28/55/18 30/57/18 29/58/18
f 29/58/19 30/57/19 32/59/19 31/60/19
f 31/60/20 32/59/20 34/61/20 33/62/20
f 28/63/21 26/64/21 36/65/21 34/66/21 32/67/21 30/68/21
f 33/62/22 34/61/22 36/69/22 35/70/22
f 35/70/23 36/69/23 26/71/23 25/72/23
f 25/73/24 27/74/24 29/75/24 31/76/24 33/77/24 35/78/24
o Cylinder.003
v -0.460338 1.744483 -0.085978
v -0.460338 2.151459 -0.085978
v -0.385879 1.744483 -0.042989
v -0.385879 2.151459 -0.042989
v -0.385879 1.744483 0.042989
v -0.385879 2.151459 0.042989
v -0.460338 1.744483 0.085978
v -0.460338 2.151459 0.085978
v -0.534797 1.744483 0.042989
v -0.534797 2.151459 0.042989
v -0.534797 1.744483 -0.042989
v -0.534797 2.151459 -0.042989
vn 0.5000 -0.0000 -0.8660
vn 1.0000 -0.0000 -0.0000
vn 0.5000 -0.0000 0.8660
vn -0.5000 -0.0000 0.8660
vn -0.0000 1.0000 -0.0000
vn -1.0000 -0.0000 -0.0000
vn -0.5000 -0.0000 -0.8660
vn -0.0000 -1.0000 -0.0000
vt 1.000000 0.500000
vt 1.000000 1.000000
vt 0.833333 1.000000
vt 0.833333 0.500000
vt 0.666667 1.000000
vt 0.666667 0.500000
vt 0.500000 1.000000
vt 0.500000 0.500000
vt 0.333333 1.000000
vt 0.333333 0.500000
vt 0.457846 0.370000
vt 0.250000 0.490000
vt 0.042154 0.370000
vt 0.042154 0.130000
vt 0.250000 0.010000
vt 0.457846 0.130000
vt 0.166667 1.000000
vt 0.166667 0.500000
vt -0.000000 1.000000
vt -0.000000 0.500000
vt 0.750000 0.490000
vt 0.957846 0.370000
vt 0.957846 0.130000
vt 0.750000 0.010000
vt 0.542154 0.130000
vt 0.542154 0.370000
s 0
f 37/79/25 38/80/25 40/81/25 39/82/25
f 39/82/26 40/81/26 42/83/26 41/84/26
f 41/84/27 42/83/27 44/85/27 43/86/27
f 43/86/28 44/85/28 46/87/28 45/88/28
f 40/89/29 38/90/29 48/91/29 46/92/29 44/93/29 42/94/29
f 45/88/30 46/87/30 48/95/30 47/96/30
f 47/96/31 48/95/31 38/97/31 37/98/31
f 37/99/32 39/100/32 41/101/32 43/102/32 45/103/32 47/104/32
o Cylinder.004
v 0.460338 1.744483 -0.085978
v 0.460338 2.151459 -0.085978
v 0.534797 1.744483 -0.042989
v 0.534797 2.151459 -0.042989
v 0.534797 1.744483 0.042989
v 0.534797 2.151459 0.042989
v 0.460338 1.744483 0.085978
v 0.460338 2.151459 0.085978
v 0.385878 1.744483 0.042989
v 0.385878 2.151459 0.042989
v 0.385878 1.744483 -0.042989
v 0.385878 2.151459 -0.042989
vn 0.5000 -0.0000 -0.8660
vn 1.0000 -0.0000 -0.0000
vn 0.5000 -0.0000 0.8660
vn -0.5000 -0.0000 0.8660
vn -0.0000 1.0000 -0.0000
vn -1.0000 -0.0000 -0.0000
vn -0.5000 -0.0000 -0.8660
vn -0.0000 -1.0000 -0.0000
vt 1.000000 0.500000
vt 1.000000 1.000000
vt 0.833333 1.000000
vt 0.833333 0.500000
vt 0.666667 1.000000
vt 0.666667 0.500000
vt 0.500000 1.000000
vt 0.500000 0.500000
vt 0.333333 1.000000
vt 0.333333 0.500000
vt 0.457846 0.370000
vt 0.250000 0.490000
vt 0.042154 0.370000
vt 0.042154 0.130000
vt 0.250000 0.010000
vt 0.457846 0.130000
vt 0.166667 1.000000
vt 0.166667 0.500000
vt -0.000000 1.000000
vt -0.000000 0.500000
vt 0.750000 0.490000
vt 0.957846 0.370000
vt 0.957846 0.130000
vt 0.750000 0.010000
vt 0.542154 0.130000
vt 0.542154 0.370000
s 0
f 49/105/33 50/106/33 52/107/33 51/108/33
f 51/108/34 52/107/34 54/109/34 53/110/34
f 53/110/35 54/109/35 56/111/35 55/112/35
f 55/112/36 56/111/36 58/113/36 57/114/36
f 52/115/37 50/116/37 60/117/37 58/118/37 56/119/37 54/120/37
f 57/114/38 58/113/38 60/121/38 59/122/38
f 59/122/39 60/121/39 50/123/39 49/124/39
f 49/125/40 51/126/40 53/127/40 55/128/40 57/129/40 59/130/40
o Cone
v 0.000000 2.148067 -0.155105
v 0.134325 2.148067 -0.077553
v 0.134325 2.148067 0.077553
v 0.000000 2.148067 0.155105
v -0.134325 2.148067 0.077553
v -0.134325 2.148067 -0.077553
v 0.000000 2.458278 0.000000
vn 0.4588 0.3974 -0.7947
vn 0.9177 0.3974 -0.0000
vn 0.4588 0.3974 0.7947
vn -0.4588 0.3974 0.7947
vn -0.0000 -1.0000 -0.0000
vn -0.9177 0.3974 -0.0000
vn -0.4588 0.3974 -0.7947
vt 0.250000 0.490000
vt 0.250000 0.250000
vt 0.457846 0.370000
vt 0.457846 0.130000
vt 0.250000 0.010000
vt 0.042154 0.130000
vt 0.750000 0.490000
vt 0.957846 0.370000
vt 0.957846 0.130000
vt 0.750000 0.010000
vt 0.542154 0.130000
vt 0.542154 0.370000
vt 0.042154 0.370000
s 0
f 61/131/41 67/132/41 62/133/41
f 62/133/42 67/132/42 63/134/42
f 63/134/43 67/132/43 64/135/43
f 64/135/44 67/132/44 65/136/44
f 61/137/45 62/138/45 63/139/45 64/140/45 65/141/45 66/142/45
f 65/136/46 67/132/46 66/143/46
f 66/143/47 67/132/47 61/131/47
o Cone.001
v -0.460338 2.148067 -0.155105
v -0.326013 2.148067 -0.077553
v -0.326013 2.148067 0.077553
v -0.460338 2.148067 0.155105
v -0.594663 2.148067 0.077553
v -0.594663 2.148067 -0.077553
v -0.460338 2.458278 0.000000
vn 0.4588 0.3974 -0.7947
vn 0.9177 0.3974 -0.0000
vn 0.4588 0.3974 0.7947
vn -0.4588 0.3974 0.7947
vn -0.0000 -1.0000 -0.0000
vn -0.9177 0.3974 -0.0000
vn -0.4588 0.3974 -0.7947
vt 0.250000 0.490000
vt 0.250000 0.250000
vt 0.457846 0.370000
vt 0.457846 0.130000
vt 0.250000 0.010000
vt 0.042154 0.130000
vt 0.750000 0.490000
vt 0.957846 0.370000
vt 0.957846 0.130000
vt 0.750000 0.010000
vt 0.542154 0.130000
vt 0.542154 0.370000
vt 0.042154 0.370000
s 0
f 68/144/48 74/145/48 69/146/48
f 69/146/49 74/145/49 70/147/49
f 70/147/50 74/145/50 71/148/50
f 71/148/51 74/145/51 72/149/51
f 68/150/52 69/151/52 70/152/52 71/153/52 72/154/52 73/155/52
f 72/149/53 74/145/53 73/156/53
f 73/156/54 74/145/54 68/144/54
o Cone.002
v 0.460338 2.148067 -0.155105
v 0.594663 2.148067 -0.077553
v 0.594663 2.148067 0.077553
v 0.460338 2.148067 0.155105
v 0.326013 2.148067 0.077553
v 0.326013 2.148067 -0.077553
v 0.460338 2.458278 0.000000
vn 0.4588 0.3974 -0.7947
vn 0.9177 0.3974 -0.0000
vn 0.4588 0.3974 0.7947
vn -0.4588 0.3974 0.7947
vn -0.0000 -1.0000 -0.0000
vn -0.9177 0.3974 -0.0000
vn -0.4588 0.3974 -0.7947
vt 0.250000 0.490000
vt 0.250000 0.250000
vt 0.457846 0.370000
vt 0.457846 0.130000
vt 0.250000 0.010000
vt 0.042154 0.130000
vt 0.750000 0.490000
vt 0.957846 0.370000
vt 0.957846 0.130000
vt 0.750000 0.010000
vt 0.542154 0.130000
vt 0.542154 0.370000
vt 0.042154 0.370000
s 0
f 75/157/55 81/158/55 76/159/55
f 76/159/56 81/158/56 77/160/56
f 77/160/57 81/158/57 78/161/57
f 78/161/58 81/158/58 79/162/58
f 75/163/59 76/164/59 77/165/59 78/166/59 79/167/59 80/168/59
f 79/162/60 81/158/60 80/169/60
f 80/169/61 81/158/61 75/157/61
